<svg width="140" height="210" viewBox="0 0 140 210" fill="none" xmlns="http://www.w3.org/2000/svg">
<rect y="89.4943" width="139.233" height="119.933" rx="12.4069" fill="#422800"/>
<path fill-rule="evenodd" clip-rule="evenodd" d="M12.2769 209.655C5.97922 209.641 0.783412 204.935 0 198.847L83.2996 152.445L139.13 116.442V197.248C139.13 204.091 133.591 209.64 126.751 209.655H80.5425H12.2769Z" fill="#2F1E04"/>
<path d="M71.709 206.941L29.5271 97.2674L114.175 97.3773L71.709 206.941Z" fill="#F3EFEF"/>
<circle cx="69.5416" cy="63.5761" r="57.2094" fill="#FFAD80"/>
<path fill-rule="evenodd" clip-rule="evenodd" d="M41.8116 113.482C50.4379 118.698 60.5527 121.699 71.3685 121.699C102.964 121.699 128.578 96.0855 128.578 64.4897C128.578 48.4409 121.97 33.9356 111.326 23.5464L41.8116 113.482Z" fill="#F89863"/>
<path fill-rule="evenodd" clip-rule="evenodd" d="M56.1593 166.895L71.5373 206.878L95.9034 144.013L56.1593 166.895Z" fill="#C4C4C4"/>
<circle cx="86.1678" cy="11.5" r="11.5" fill="#672B1E"/>
<circle cx="102.168" cy="16.5" r="11.5" fill="#672B1E"/>
<circle r="11.5" transform="matrix(-1 0 0 1 53.5 11.5)" fill="#672B1E"/>
<circle r="11.5" transform="matrix(-1 0 0 1 37.5 16.5)" fill="#672B1E"/>
<path d="M9 64.5C9 70.8513 19.1487 43 25.5 43C31.8513 43 28.5 29.5 37 27.5C37 21.1487 31.8513 20 25.5 20C19.1487 20 9 58.1487 9 64.5Z" fill="#672B1E"/>
<path d="M130 64.5C130 70.8513 119.851 43 113.5 43C107.149 43 110.5 29.5 102 27.5C102 21.1487 107.149 20 113.5 20C119.851 20 130 58.1487 130 64.5Z" fill="#672B1E"/>
<circle r="11.5" transform="matrix(-1 0 0 1 70.5 11.5)" fill="#672B1E"/>
</svg>
