<svg width="140" height="210" viewBox="0 0 140 210" fill="none" xmlns="http://www.w3.org/2000/svg">
<rect x="0.0513916" y="89.2323" width="139.233" height="119.933" rx="12.4069" fill="#FDF2E1"/>
<circle cx="69.593" cy="64.2276" r="57.2094" fill="#FFAD80"/>
<path fill-rule="evenodd" clip-rule="evenodd" d="M40.245 113.397C48.8713 118.612 58.9861 121.614 69.8019 121.614C101.398 121.614 127.011 96.0002 127.011 64.4043C127.011 48.3555 120.403 33.8502 109.759 23.461L40.245 113.397Z" fill="#F89863"/>
<path d="M125.885 72.7895C125.885 84.4365 130.092 38.5336 73.5874 38.5336C17.0826 38.5336 12.1552 77.951 12.1552 66.8518C12.1552 55.7527 13.4287 0.852127 69.9334 0.852127C126.438 0.852127 129.995 68.222 125.885 72.7895Z" fill="#FF6C6C"/>
<path fill-rule="evenodd" clip-rule="evenodd" d="M12.3283 209.393C6.0306 209.379 0.83479 204.673 0.0513916 198.585L83.3509 152.183L139.182 116.18V196.986C139.182 203.829 133.642 209.378 126.803 209.393H80.5938H12.3283Z" fill="#D3C2C2"/>
<line x1="88.8796" y1="84.9387" x2="124.157" y2="75.5387" stroke="white" stroke-width="3.19722" stroke-linecap="round"/>
<line x1="88.8651" y1="105.941" x2="116.384" y2="98.3904" stroke="white" stroke-width="3.19722" stroke-linecap="round"/>
<line x1="14.3486" y1="75.554" x2="50.5918" y2="85.5146" stroke="white" stroke-width="3.19722" stroke-linecap="round"/>
<line x1="20.3215" y1="94.8016" x2="50.6561" y2="104.206" stroke="white" stroke-width="3.19722" stroke-linecap="round"/>
<rect x="49.3799" y="82.8379" width="40.1936" height="25.5777" rx="2.74047" fill="white"/>
<path d="M31.5668 121.433L39.0823 134.108H24.0513L31.5668 121.433Z" fill="#FF6C6C"/>
<path d="M126.341 73.0179C126.341 84.2432 81.4961 46.755 71.5321 46.755C61.568 46.755 11.6984 89.004 11.6984 73.0179C11.6984 61.7926 33.1655 37.6202 69.7051 37.6201C112.727 37.6201 126.341 61.7926 126.341 73.0179Z" fill="#421E09"/>
<line x1="61.9404" y1="23.461" x2="77.4697" y2="23.461" stroke="white" stroke-width="5.0242" stroke-linecap="round"/>
<line x1="2.5121" y1="-2.5121" x2="18.5093" y2="-2.5121" transform="matrix(-0.0325914 0.999469 -0.999457 -0.0329482 67.9922 13.1842)" stroke="white" stroke-width="5.0242" stroke-linecap="round"/>
</svg>
