<svg width="163" height="219" viewBox="0 0 163 219" fill="none" xmlns="http://www.w3.org/2000/svg">
<g filter="url(#filter0_d_313_86)">
<rect x="13.3491" y="94.8866" width="139.233" height="119.933" rx="12.4069" fill="#1C0629"/>
<path fill-rule="evenodd" clip-rule="evenodd" d="M151.979 103.751C152.274 104.81 152.431 105.926 152.431 107.079V202.199C152.431 209.051 146.876 214.606 140.024 214.606H25.6052C18.7531 214.606 13.1983 209.051 13.1983 202.199V198.497L89.8094 149.644L151.979 103.751Z" fill="#13041E"/>
<rect x="68.3886" y="115.565" width="30.3279" height="95.1193" fill="#D82727"/>
<circle cx="82.9655" cy="59.7338" r="57.2094" fill="#D7D4D4"/>
<path fill-rule="evenodd" clip-rule="evenodd" d="M53.3268 108.97C61.9194 114.128 71.9784 117.094 82.73 117.094C114.326 117.094 139.939 91.4805 139.939 59.8846C139.939 43.9004 133.384 29.4472 122.815 19.0668L53.3268 108.97Z" fill="#B5B5B5"/>
<path d="M73.4001 89.0988L67.4954 100.008L61.1853 89.3282L73.4001 89.0988Z" fill="white" stroke="black" stroke-width="1.37854"/>
<path d="M103.912 89.1029L97.6109 99.7878L91.6974 88.8834L103.912 89.1029Z" fill="white" stroke="black" stroke-width="1.37854"/>
<path d="M139.486 44.5698C149.135 107.293 106.351 7.34924 85.0332 7.34924C63.7155 7.34924 15.9305 108.543 26.4453 49.3947C27.8238 21.8239 61.605 -3.81608 85.0332 1.14581C107.28 -2.90259 139.486 30.1042 139.486 44.5698Z" fill="black"/>
<path d="M147.414 54.4837L138.944 70.3968L130.013 59.1946L147.414 54.4837Z" fill="#B5B5B5"/>
<path d="M86.2943 49.5843C85.1839 51.3775 82.553 51.3105 81.5353 49.463L61.3201 12.7638C60.3928 11.0804 61.4291 8.98867 63.3301 8.70639L83.3566 5.73262C83.6575 5.68794 83.9638 5.69337 84.2629 5.74869L106.475 9.85635C108.383 10.2091 109.339 12.3696 108.318 14.019L86.2943 49.5843Z" fill="black"/>
<path d="M20.3631 58.2062L37.3522 64.2339L27.5913 74.7203L20.3631 58.2062Z" fill="#D7D4D4"/>
<path fill-rule="evenodd" clip-rule="evenodd" d="M68.3886 162.831L98.7165 143.583V210.582H68.3886V162.831Z" fill="#AF2A2A"/>
<path fill-rule="evenodd" clip-rule="evenodd" d="M97.338 67.3874L114.436 53.5303C119.615 55.1854 123.344 59.8247 123.344 65.289C123.344 72.1411 117.48 77.6959 110.248 77.6959C103.77 77.6959 98.3904 73.2402 97.338 67.3874Z" fill="#D82C2C"/>
<path fill-rule="evenodd" clip-rule="evenodd" d="M68.1655 68.7359L50.9445 54.8788C45.7288 56.5339 41.9733 61.1732 41.9733 66.6375C41.9733 73.4896 47.8786 79.0444 55.1633 79.0444C61.6876 79.0444 67.1056 74.5887 68.1655 68.7359Z" fill="#D82C2C"/>
<path d="M145.934 77.6725C147.624 76.0353 150.456 77.131 150.604 79.4793L152.027 102.056C152.149 103.997 150.277 105.451 148.427 104.852L129.889 98.8572C127.91 98.2173 127.326 95.7007 128.819 94.2538L145.934 77.6725Z" fill="#1C0629"/>
<path d="M13.7442 81.6197C13.7844 79.3218 16.4532 78.0788 18.2379 79.5268L36.7863 94.5751C38.3637 95.8548 38.0627 98.343 36.2257 99.2097L17.2577 108.158C15.4099 109.03 13.2889 107.66 13.3246 105.617L13.7442 81.6197Z" fill="#1C0629"/>
</g>
<defs>
<filter id="filter0_d_313_86" x="11.3714" y="0.526184" width="143.037" height="217.947" filterUnits="userSpaceOnUse" color-interpolation-filters="sRGB">
<feFlood flood-opacity="0" result="BackgroundImageFix"/>
<feColorMatrix in="SourceAlpha" type="matrix" values="0 0 0 0 0 0 0 0 0 0 0 0 0 0 0 0 0 0 127 0" result="hardAlpha"/>
<feOffset dy="1.82698"/>
<feGaussianBlur stdDeviation="0.91349"/>
<feColorMatrix type="matrix" values="0 0 0 0 0 0 0 0 0 0 0 0 0 0 0 0 0 0 0.25 0"/>
<feBlend mode="normal" in2="BackgroundImageFix" result="effect1_dropShadow_313_86"/>
<feBlend mode="normal" in="SourceGraphic" in2="effect1_dropShadow_313_86" result="shape"/>
</filter>
</defs>
</svg>
