<svg width="141" height="218" viewBox="0 0 141 218" fill="none" xmlns="http://www.w3.org/2000/svg">
<rect x="0.940674" y="94.9269" width="139.233" height="119.933" rx="12.4069" fill="#262F87"/>
<circle cx="70.4822" cy="69.9222" r="57.2094" fill="#A96D4B"/>
<path fill-rule="evenodd" clip-rule="evenodd" d="M41.1343 119.092C49.7606 124.307 59.8753 127.308 70.6911 127.308C102.287 127.308 127.901 101.695 127.901 70.0989C127.901 54.0501 121.292 39.5448 110.648 29.1556L41.1343 119.092Z" fill="#8F5B3E"/>
<path fill-rule="evenodd" clip-rule="evenodd" d="M13.2176 217.828C6.91989 217.814 1.72408 213.108 0.940674 207.02L84.2402 160.618L140.071 124.615V205.421C140.071 212.264 134.531 217.813 127.692 217.828H81.4831H13.2176Z" fill="#232A66"/>
<ellipse cx="71.2795" cy="159.556" rx="27.4047" ry="27.6331" fill="#46BADE"/>
<path d="M92.6026 154.031C92.6026 159.178 88.3545 163.35 83.1142 163.35C77.184 161.486 84.8086 159.792 73.6259 154.031C72.9481 147.593 77.874 144.712 83.1142 144.712C87.0113 147.084 78.5395 155.048 92.6026 154.031Z" fill="#78D7FF"/>
<path d="M103.023 190.615C103.023 199.729 84.8736 192.959 69.9092 192.959C54.9448 192.959 40.2208 200.643 40.2208 191.529C45.7017 184.449 54.9448 176.456 69.9092 176.456C84.8736 176.456 93.2032 177.369 103.023 190.615Z" fill="#9F1992"/>
<path d="M44.751 178.185C44.3209 169.081 56.8685 177.612 71.8162 176.906C86.7639 176.2 96.7881 166.602 97.2182 175.706C97.6482 184.81 87.5425 192.685 72.5948 193.391C57.6471 194.097 45.181 187.289 44.751 178.185Z" fill="#9F1992"/>
<ellipse cx="115.127" cy="25.0449" rx="25.5777" ry="24.6642" fill="#4A2400"/>
<ellipse cx="26.5184" cy="25.0449" rx="25.5777" ry="24.6642" fill="#4A2400"/>
<path d="M127.459 62.7264C127.459 81.8976 109.574 46.9687 71.7362 46.9687C33.8982 46.9687 12.5877 83.0395 12.5877 63.8683C12.5877 44.697 33.8982 12.256 71.7362 12.256C109.574 12.256 127.459 43.5551 127.459 62.7264Z" fill="#542902"/>
</svg>
