<svg width="141" height="221" viewBox="0 0 141 221" fill="none" xmlns="http://www.w3.org/2000/svg">
<rect x="0.837646" y="100.962" width="139.233" height="119.933" rx="12.4069" fill="#171717"/>
<path fill-rule="evenodd" clip-rule="evenodd" d="M139.516 109.512C139.811 110.572 139.968 111.688 139.968 112.841V207.96C139.968 214.812 134.413 220.367 127.561 220.367H13.1425C6.29035 220.367 0.735596 214.812 0.735596 207.96V204.258L77.3467 155.406L139.516 109.512Z" fill="#111010"/>
<circle cx="70.454" cy="65.8096" r="57.2094" fill="#D7D4D4"/>
<path fill-rule="evenodd" clip-rule="evenodd" d="M40.8154 115.046C49.408 120.204 59.4669 123.17 70.2186 123.17C101.814 123.17 127.428 97.5564 127.428 65.9605C127.428 49.9762 120.873 35.5231 110.304 25.1427L40.8154 115.046Z" fill="#B5B5B5"/>
<path d="M60.8886 95.1746L54.984 106.084L48.6738 95.404L60.8886 95.1746Z" fill="white" stroke="black" stroke-width="1.37854"/>
<path d="M91.401 95.1787L85.0994 105.864L79.1859 94.9592L91.401 95.1787Z" fill="white" stroke="black" stroke-width="1.37854"/>
<path d="M126.974 50.6456C136.624 113.369 93.8395 13.4251 72.5217 13.4251C51.204 13.4251 5.32619 112.564 13.9338 55.4705C15.3123 27.8997 44.6063 3.40159 72.5217 7.22163C96.4469 2.94484 126.974 36.1801 126.974 50.6456Z" fill="black"/>
<path d="M134.902 60.5596L126.432 76.4726L117.502 65.2705L134.902 60.5596Z" fill="#B5B5B5"/>
<path d="M74.0219 43.6682C72.9485 45.6494 70.0809 45.5763 69.1098 43.543L56.1233 16.3507C55.2362 14.4932 56.6237 12.3539 58.6815 12.4064L86.0228 13.1032C88.0806 13.1557 89.3573 15.3629 88.3768 17.1728L74.0219 43.6682Z" fill="black"/>
<path d="M7.85166 64.282L24.8408 70.3097L15.0799 80.7961L7.85166 64.282Z" fill="#D7D4D4"/>
</svg>
