<svg width="141" height="95" viewBox="0 0 141 95" fill="none" xmlns="http://www.w3.org/2000/svg">
<ellipse cx="70.6893" cy="41.6432" rx="69.7985" ry="40.8951" fill="#141313"/>
<path d="M39.2274 36.8807L17.7955 14.6118L23.952 11.2025L29.7942 8.43512L33.7915 6.89771L39.2275 5.36031L39.2274 36.8807Z" fill="#DCDCDC"/>
<path d="M101.775 37.0517L124.806 15.8147L122.039 13.9698L118.964 12.1249L112.814 8.7426L103.625 5.64901L101.775 37.0517Z" fill="#DCDCDC"/>
<path d="M107.665 10.5616C107.665 14.4674 86.1045 9.05007 70.1416 9.05007C54.1788 9.05007 35.6364 13.9698 37.2519 9.94663C22.545 6.30882 53.7778 0.748096 70.1416 0.748062C96.8536 0.748007 126.036 11.2025 107.665 10.5616Z" fill="#DCDCDC"/>
<mask id="path-5-inside-1_313_543" fill="white">
<path fill-rule="evenodd" clip-rule="evenodd" d="M69.0266 33.6306C69.762 32.4248 71.5128 32.4248 72.2483 33.6306L82.4096 50.2905C82.4836 50.4118 82.542 50.5364 82.5859 50.6625C83.9806 52.6113 84.7886 54.9244 84.7886 57.4052C84.7886 64.3523 78.4528 69.9841 70.6373 69.9841C62.8218 69.9841 56.4861 64.3523 56.4861 57.4052C56.4861 54.9242 57.2942 52.6109 58.6891 50.662C58.7329 50.5361 58.7913 50.4116 58.8652 50.2905L69.0266 33.6306ZM120.576 78.2134C122.498 84.8894 117.968 92.054 110.457 94.2161C102.947 96.3781 95.3003 92.7189 93.3785 86.0429C92.6922 83.6587 92.8288 81.2122 93.6301 78.9535C93.6374 78.8203 93.6591 78.6845 93.6966 78.5476L98.8526 59.7269C99.2258 58.3647 100.908 57.8804 101.949 58.8357L116.322 72.0344C116.427 72.1305 116.517 72.234 116.594 72.3431C118.474 73.83 119.89 75.8293 120.576 78.2134ZM30.7437 91.7469C38.0626 94.4883 45.9712 91.4367 48.408 84.9309C49.2782 82.6077 49.3329 80.1582 48.7103 77.844C48.7135 77.7105 48.7025 77.5733 48.6757 77.4338L45.0036 58.2681C44.7379 56.881 43.0983 56.2669 41.9866 57.1381L26.6272 69.1753C26.5155 69.2629 26.4172 69.3589 26.3319 69.4616C24.342 70.7973 22.7739 72.6802 21.9037 75.0035C19.4669 81.5093 23.4247 89.0056 30.7437 91.7469Z"/>
</mask>
<path fill-rule="evenodd" clip-rule="evenodd" d="M69.0266 33.6306C69.762 32.4248 71.5128 32.4248 72.2483 33.6306L82.4096 50.2905C82.4836 50.4118 82.542 50.5364 82.5859 50.6625C83.9806 52.6113 84.7886 54.9244 84.7886 57.4052C84.7886 64.3523 78.4528 69.9841 70.6373 69.9841C62.8218 69.9841 56.4861 64.3523 56.4861 57.4052C56.4861 54.9242 57.2942 52.6109 58.6891 50.662C58.7329 50.5361 58.7913 50.4116 58.8652 50.2905L69.0266 33.6306ZM120.576 78.2134C122.498 84.8894 117.968 92.054 110.457 94.2161C102.947 96.3781 95.3003 92.7189 93.3785 86.0429C92.6922 83.6587 92.8288 81.2122 93.6301 78.9535C93.6374 78.8203 93.6591 78.6845 93.6966 78.5476L98.8526 59.7269C99.2258 58.3647 100.908 57.8804 101.949 58.8357L116.322 72.0344C116.427 72.1305 116.517 72.234 116.594 72.3431C118.474 73.83 119.89 75.8293 120.576 78.2134ZM30.7437 91.7469C38.0626 94.4883 45.9712 91.4367 48.408 84.9309C49.2782 82.6077 49.3329 80.1582 48.7103 77.844C48.7135 77.7105 48.7025 77.5733 48.6757 77.4338L45.0036 58.2681C44.7379 56.881 43.0983 56.2669 41.9866 57.1381L26.6272 69.1753C26.5155 69.2629 26.4172 69.3589 26.3319 69.4616C24.342 70.7973 22.7739 72.6802 21.9037 75.0035C19.4669 81.5093 23.4247 89.0056 30.7437 91.7469Z" fill="#D81E1E"/>
<path d="M72.2483 33.6306L70.6374 34.6131V34.6131L72.2483 33.6306ZM69.0266 33.6306L70.6374 34.6131V34.6131L69.0266 33.6306ZM82.4096 50.2905L80.7988 51.273L80.7988 51.273L82.4096 50.2905ZM82.5859 50.6625L80.8037 51.2822L80.8931 51.5393L81.0515 51.7606L82.5859 50.6625ZM58.6891 50.662L60.2234 51.7602L60.3817 51.539L60.4711 51.2821L58.6891 50.662ZM58.8652 50.2905L57.2544 49.308L57.2543 49.308L58.8652 50.2905ZM110.457 94.2161L109.935 92.4029L110.457 94.2161ZM120.576 78.2134L118.763 78.7353V78.7353L120.576 78.2134ZM93.3785 86.0429L91.5653 86.5648V86.5648L93.3785 86.0429ZM93.6301 78.9535L95.4084 79.5844L95.4993 79.328L95.5142 79.0563L93.6301 78.9535ZM93.6966 78.5476L91.8768 78.0491L91.8768 78.0491L93.6966 78.5476ZM98.8526 59.7269L97.0329 59.2284V59.2284L98.8526 59.7269ZM101.949 58.8357L103.225 57.4459V57.4459L101.949 58.8357ZM116.322 72.0344L117.598 70.6446L117.598 70.6446L116.322 72.0344ZM116.594 72.3431L115.053 73.4317L115.21 73.6539L115.424 73.8228L116.594 72.3431ZM48.408 84.9309L50.1749 85.5928L48.408 84.9309ZM30.7437 91.7469L31.4055 89.98L31.4055 89.98L30.7437 91.7469ZM48.7103 77.844L46.824 77.7991L46.8175 78.0713L46.8883 78.3342L48.7103 77.844ZM48.6757 77.4338L46.8226 77.7888L48.6757 77.4338ZM45.0036 58.2681L43.1505 58.6232L45.0036 58.2681ZM41.9866 57.1381L40.8227 55.653L41.9866 57.1381ZM26.6272 69.1753L27.7911 70.6604L27.7911 70.6604L26.6272 69.1753ZM26.3319 69.4616L27.3836 71.0282L27.6094 70.8765L27.7833 70.6673L26.3319 69.4616ZM21.9037 75.0035L20.1367 74.3417L21.9037 75.0035ZM73.8591 32.6481C72.3882 30.2365 68.8866 30.2365 67.4157 32.6481L70.6374 34.6131V34.6131L73.8591 32.6481ZM84.0205 49.308L73.8591 32.6481L70.6374 34.6131L80.7988 51.273L84.0205 49.308ZM84.368 50.0428C84.2799 49.7893 84.1639 49.5431 84.0204 49.308L80.7988 51.273C80.8033 51.2804 80.8041 51.2834 80.8037 51.2822L84.368 50.0428ZM86.6754 57.4052C86.6754 54.5036 85.728 51.8108 84.1202 49.5643L81.0515 51.7606C82.2332 53.4118 82.9017 55.3452 82.9017 57.4052H86.6754ZM70.6373 71.8709C79.2798 71.8709 86.6754 65.5972 86.6754 57.4052H82.9017C82.9017 63.1075 77.6258 68.0972 70.6373 68.0972V71.8709ZM54.5993 57.4052C54.5993 65.5972 61.9948 71.8709 70.6373 71.8709V68.0972C63.6488 68.0972 58.3729 63.1075 58.3729 57.4052H54.5993ZM57.1548 49.5638C55.5468 51.8104 54.5993 54.5033 54.5993 57.4052H58.3729C58.3729 55.345 59.0415 53.4115 60.2234 51.7602L57.1548 49.5638ZM57.2543 49.308C57.1111 49.5428 56.9952 49.7887 56.9071 50.0419L60.4711 51.2821C60.4707 51.2835 60.4715 51.2804 60.4761 51.273L57.2543 49.308ZM67.4157 32.6481L57.2544 49.308L60.476 51.273L70.6374 34.6131L67.4157 32.6481ZM110.979 96.0293C119.284 93.6385 124.656 85.5637 122.39 77.6914L118.763 78.7353C120.341 84.2151 116.651 90.4696 109.935 92.4029L110.979 96.0293ZM91.5653 86.5648C93.8315 94.4371 102.674 98.4201 110.979 96.0293L109.935 92.4029C103.22 94.3362 96.7692 91.0006 95.1917 85.5209L91.5653 86.5648ZM91.8519 78.3226C90.9281 80.9263 90.7626 83.7762 91.5653 86.5648L95.1917 85.5209C94.6218 83.5411 94.7294 81.4981 95.4084 79.5844L91.8519 78.3226ZM91.8768 78.0491C91.8041 78.3145 91.7607 78.5828 91.7461 78.8506L95.5142 79.0563C95.5141 79.0577 95.514 79.0546 95.5163 79.0462L91.8768 78.0491ZM97.0329 59.2284L91.8768 78.0491L95.5163 79.0462L100.672 60.2254L97.0329 59.2284ZM103.225 57.4459C101.144 55.5353 97.7792 56.504 97.0329 59.2284L100.672 60.2254V60.2254L103.225 57.4459ZM117.598 70.6446L103.225 57.4459L100.672 60.2254L115.046 73.4242L117.598 70.6446ZM118.135 71.2545C117.981 71.0353 117.801 70.8309 117.598 70.6446L115.046 73.4242C115.052 73.43 115.054 73.4327 115.053 73.4317L118.135 71.2545ZM122.39 77.6914C121.587 74.903 119.932 72.5773 117.765 70.8633L115.424 73.8228C117.016 75.0826 118.193 76.7557 118.763 78.7353L122.39 77.6914ZM46.641 84.2691C44.6409 89.6091 37.95 92.4313 31.4055 89.98L30.0818 93.5139C38.1753 96.5453 47.3015 93.2643 50.1749 85.5928L46.641 84.2691ZM46.8883 78.3342C47.4157 80.2949 47.3636 82.34 46.641 84.2691L50.1749 85.5928C51.1927 82.8755 51.25 80.0215 50.5324 77.3538L46.8883 78.3342ZM46.8226 77.7888C46.8243 77.7973 46.824 77.8004 46.824 77.7991L50.5966 77.8889C50.603 77.6206 50.5807 77.3493 50.5289 77.0787L46.8226 77.7888ZM43.1505 58.6232L46.8226 77.7888L50.5289 77.0787L46.8567 57.9131L43.1505 58.6232ZM43.1505 58.6232L43.1505 58.6232L46.8567 57.9131C46.3252 55.1388 43.046 53.9106 40.8227 55.653L43.1505 58.6232ZM27.7911 70.6604L43.1505 58.6232L40.8227 55.653L25.4633 67.6902L27.7911 70.6604ZM27.7833 70.6673C27.7824 70.6683 27.7843 70.6658 27.7911 70.6604L25.4634 67.6902C25.2468 67.86 25.052 68.0496 24.8806 68.2559L27.7833 70.6673ZM23.6706 75.6654C24.3933 73.7361 25.6976 72.1599 27.3836 71.0282L25.2803 67.895C22.9865 69.4347 21.1546 71.6242 20.1367 74.3417L23.6706 75.6654ZM31.4055 89.98C24.861 87.5287 21.6705 81.0054 23.6706 75.6654L20.1367 74.3417C17.2633 82.0132 21.9884 90.4824 30.0818 93.5139L31.4055 89.98Z" fill="black" mask="url(#path-5-inside-1_313_543)"/>
<path d="M114.362 81.8214C112.341 83.0166 113.115 79.7131 111.578 77.1123C110.04 74.5115 106.772 73.5983 108.793 72.4031C110.814 71.2079 113.7 72.3474 115.237 74.9482C116.775 77.549 116.383 80.6263 114.362 81.8214Z" fill="#F77878"/>
<path d="M66.2279 64.4971C68.3019 64.001 65.6581 62.1149 64.9554 59.1763C64.2526 56.2377 65.7569 53.3595 63.6829 53.8555C61.6088 54.3515 60.4971 57.1358 61.1999 60.0744C61.9027 63.013 64.1538 64.9931 66.2279 64.4971Z" fill="#F77878"/>
<path d="M27.9822 83.6582C30.0381 84.2248 28.6328 81.2969 29.4355 78.384C30.2381 75.4711 32.9447 73.6762 30.8888 73.1097C28.8329 72.5432 26.5155 74.4453 25.7129 77.3582C24.9102 80.2711 25.9262 83.0917 27.9822 83.6582Z" fill="#F77878"/>
</svg>
