<svg width="369" height="169" viewBox="0 0 369 169" fill="none" xmlns="http://www.w3.org/2000/svg">
<g filter="url(#filter0_d_0_1)">
<path d="M144.803 100.761C153.975 112.516 121.835 94.1457 111.735 94.1457C101.634 94.1457 94.5286 111.875 94.5286 101.809C94.5286 91.7432 102.717 83.5833 112.817 83.5833C122.918 83.5833 133.694 91.8482 144.803 100.761Z" fill="#490039"/>
<path d="M96.5637 101.898C94.1919 111.68 90.4277 92.4556 80.6116 90.0757C70.7955 87.6957 58.6448 103.061 61.0165 93.2789C63.3883 83.4966 73.2685 77.4957 83.0846 79.8757C92.9007 82.2557 98.9355 92.1152 96.5637 101.898Z" fill="#490039"/>
<path d="M63.7556 93.8075C58.9009 102.625 60.311 83.0867 51.4629 78.2153C42.6148 73.3439 26.8591 84.9842 31.7137 76.1665C36.5684 67.3488 47.6767 64.1497 56.5248 69.0212C65.3729 73.8926 68.6102 84.9898 63.7556 93.8075Z" fill="#490039"/>
<path d="M33.5292 77.2731C28.6746 86.0908 30.0847 66.5523 21.2366 61.6809C12.3885 56.8095 -3.36725 68.4498 1.48742 59.6321C6.3421 50.8144 17.4504 47.6153 26.2985 52.4867C35.1466 57.3581 38.3839 68.4554 33.5292 77.2731Z" fill="#490039"/>
<path d="M75.8247 29.7156C46.6293 31.6534 12.2714 45.8623 4.65015 56.1962H22.4761L35.2643 74.1514L52.0568 71.4387L64.5867 87.8437L77.7624 85.777L96.6217 95.465L110.572 87.8437L146.224 103.086C137.57 71.4387 105.018 27.778 75.8247 29.7156Z" fill="#490039"/>
</g>
<g filter="url(#filter1_d_0_1)">
<path d="M222.717 94.9353C213.457 106.803 245.906 88.2562 256.103 88.2562C266.301 88.2562 273.475 106.156 273.475 95.9931C273.475 85.8306 265.208 77.5923 255.011 77.5923C244.813 77.5923 233.933 85.9366 222.717 94.9353Z" fill="#490039"/>
<path d="M271.42 96.0825C273.815 105.959 277.615 86.5498 287.526 84.147C297.436 81.7442 309.703 97.2574 307.309 87.381C304.914 77.5047 294.939 71.4462 285.029 73.849C275.118 76.2518 269.025 86.2061 271.42 96.0825Z" fill="#490039"/>
<path d="M304.543 87.9147C309.445 96.8171 308.021 77.0909 316.954 72.1726C325.887 67.2544 341.795 79.0066 336.893 70.1042C331.992 61.2017 320.777 57.9719 311.844 62.8901C302.911 67.8084 299.642 79.0122 304.543 87.9147Z" fill="#490039"/>
<path d="M335.06 71.2218C339.962 80.1243 338.538 60.398 347.471 55.4797C356.404 50.5615 372.312 62.3138 367.41 53.4113C362.509 44.5089 351.294 41.279 342.361 46.1972C333.428 51.1155 330.159 62.3194 335.06 71.2218Z" fill="#490039"/>
<path d="M292.358 23.207C321.834 25.1633 356.523 39.5089 364.217 49.9421H346.22L333.309 68.0698L316.355 65.3311L303.704 81.8938L290.402 79.8071L271.362 89.5883L257.277 81.8938L221.282 97.2828C230.02 65.3311 262.885 21.2507 292.358 23.207Z" fill="#490039"/>
</g>
<g filter="url(#filter2_d_0_1)">
<path d="M125.118 131L112.892 31.8106H131.807L139.074 99.2825L145.532 31.8106H164.448L152.222 131H125.118Z" fill="white"/>
</g>
<g filter="url(#filter3_d_0_1)">
<path d="M163.835 81.5232L168.489 33.3559H184.806L189.404 81.5232H180.264L179.591 73.7289H173.76L173.199 81.5232H163.835ZM174.489 66.0468H178.862L176.731 41.5426H176.283L174.489 66.0468ZM192.34 81.5232V33.3559H207.031L211.068 62.7385L215.106 33.3559H229.909V81.5232H221.106V46.8136L215.554 81.5232H206.919L201.031 46.8136V81.5232H192.34Z" fill="white"/>
</g>
<g filter="url(#filter4_d_0_1)">
<path d="M163.956 83.1991H176.685C180.535 83.1991 183.283 84.4514 184.928 86.9561C186.572 89.4233 187.395 93.0494 187.395 97.8344C187.395 102.619 186.666 106.227 185.208 108.657C183.75 111.086 181.133 112.301 177.358 112.301H173.432V131.366H163.956V83.1991ZM173.993 103.61C175.152 103.61 175.993 103.404 176.517 102.993C177.077 102.545 177.432 101.928 177.582 101.143C177.769 100.32 177.862 99.1614 177.862 97.6661C177.862 95.6475 177.638 94.1896 177.189 93.2924C176.741 92.3952 175.844 91.9466 174.498 91.9466H173.432V103.61H173.993ZM191.919 131.366V83.1991H201.227V131.366H191.919ZM207.034 83.1991H221.838C224.193 83.1991 226.006 83.7412 227.277 84.8253C228.585 85.872 229.464 87.3673 229.912 89.3112C230.361 91.2177 230.585 93.6662 230.585 96.6568C230.585 99.3857 230.23 101.517 229.52 103.049C228.81 104.582 227.576 105.647 225.819 106.245C227.277 106.544 228.324 107.273 228.959 108.432C229.632 109.591 229.968 111.161 229.968 113.142L229.856 131.366H220.436V112.526C220.436 111.18 220.174 110.32 219.651 109.946C219.127 109.572 218.174 109.386 216.791 109.386V131.366H207.034V83.1991ZM219.146 101.031C220.492 101.031 221.165 99.5726 221.165 96.6568C221.165 95.3858 221.109 94.4326 220.997 93.7971C220.884 93.1616 220.679 92.7317 220.38 92.5074C220.081 92.2457 219.651 92.1148 219.09 92.1148H216.847V101.031H219.146ZM247.215 131.815C243.327 131.815 240.374 130.637 238.355 128.282C236.336 125.89 235.327 122.544 235.327 118.245V95.311C235.327 91.1616 236.336 88.0402 238.355 85.9467C240.374 83.8159 243.327 82.7505 247.215 82.7505C251.102 82.7505 254.056 83.8159 256.074 85.9467C258.093 88.0402 259.102 91.1616 259.102 95.311V118.245C259.102 122.582 258.093 125.927 256.074 128.282C254.056 130.637 251.102 131.815 247.215 131.815ZM247.215 122.955C248.074 122.955 248.654 122.582 248.953 121.834C249.252 121.086 249.401 120.04 249.401 118.694V95.1428C249.401 94.0961 249.252 93.255 248.953 92.6195C248.691 91.9466 248.13 91.6102 247.271 91.6102C245.663 91.6102 244.859 92.8251 244.859 95.255V118.75C244.859 120.133 245.028 121.18 245.364 121.89C245.701 122.6 246.317 122.955 247.215 122.955Z" fill="white"/>
</g>
<g filter="url(#filter5_d_0_1)">
<path d="M144.803 100.761C153.975 112.516 121.835 94.1457 111.735 94.1457C101.634 94.1457 94.5286 111.875 94.5286 101.809C94.5286 91.7432 102.717 83.5833 112.817 83.5833C122.918 83.5833 133.694 91.8482 144.803 100.761Z" fill="#490039"/>
<path d="M96.5637 101.898C94.1919 111.68 90.4277 92.4556 80.6116 90.0757C70.7955 87.6957 58.6448 103.061 61.0165 93.2789C63.3883 83.4966 73.2685 77.4957 83.0846 79.8757C92.9007 82.2557 98.9355 92.1152 96.5637 101.898Z" fill="#490039"/>
<path d="M63.7556 93.8075C58.9009 102.625 60.311 83.0867 51.4629 78.2153C42.6148 73.3439 26.8591 84.9842 31.7137 76.1665C36.5684 67.3488 47.6767 64.1497 56.5248 69.0212C65.3729 73.8926 68.6102 84.9898 63.7556 93.8075Z" fill="#490039"/>
<path d="M33.5292 77.2731C28.6746 86.0908 30.0847 66.5523 21.2366 61.6809C12.3885 56.8095 -3.36725 68.4498 1.48742 59.6321C6.3421 50.8144 17.4504 47.6153 26.2985 52.4867C35.1466 57.3581 38.3839 68.4554 33.5292 77.2731Z" fill="#490039"/>
<path d="M75.8247 29.7156C46.6293 31.6534 12.2714 45.8623 4.65015 56.1962H22.4761L35.2643 74.1514L52.0568 71.4387L64.5867 87.8437L77.7624 85.777L96.6217 95.465L110.572 87.8437L146.224 103.086C137.57 71.4387 105.018 27.778 75.8247 29.7156Z" fill="#490039"/>
</g>
<g filter="url(#filter6_d_0_1)">
<path d="M222.717 94.9353C213.457 106.803 245.906 88.2562 256.103 88.2562C266.301 88.2562 273.475 106.156 273.475 95.9931C273.475 85.8306 265.208 77.5923 255.011 77.5923C244.813 77.5923 233.933 85.9366 222.717 94.9353Z" fill="#490039"/>
<path d="M271.42 96.0825C273.815 105.959 277.615 86.5498 287.526 84.147C297.436 81.7442 309.703 97.2574 307.309 87.381C304.914 77.5047 294.939 71.4462 285.029 73.849C275.118 76.2518 269.025 86.2061 271.42 96.0825Z" fill="#490039"/>
<path d="M304.543 87.9147C309.445 96.8171 308.021 77.0909 316.954 72.1726C325.887 67.2544 341.795 79.0066 336.893 70.1042C331.992 61.2017 320.777 57.9719 311.844 62.8901C302.911 67.8084 299.642 79.0122 304.543 87.9147Z" fill="#490039"/>
<path d="M335.06 71.2218C339.962 80.1243 338.538 60.398 347.471 55.4797C356.404 50.5615 372.312 62.3138 367.41 53.4113C362.509 44.5089 351.294 41.279 342.361 46.1972C333.428 51.1155 330.159 62.3194 335.06 71.2218Z" fill="#490039"/>
<path d="M292.358 23.207C321.834 25.1633 356.523 39.5089 364.217 49.9421H346.22L333.309 68.0698L316.355 65.3311L303.704 81.8938L290.402 79.8071L271.362 89.5883L257.277 81.8938L221.282 97.2828C230.02 65.3311 262.885 21.2507 292.358 23.207Z" fill="#490039"/>
</g>
<g filter="url(#filter7_d_0_1)">
<path d="M125.118 131L112.892 31.8106H131.807L139.074 99.2825L145.532 31.8106H164.448L152.222 131H125.118Z" fill="white"/>
</g>
<g filter="url(#filter8_d_0_1)">
<path d="M163.835 81.5232L168.489 33.3559H184.806L189.404 81.5232H180.264L179.591 73.7289H173.76L173.199 81.5232H163.835ZM174.489 66.0468H178.862L176.731 41.5426H176.283L174.489 66.0468ZM192.34 81.5232V33.3559H207.031L211.068 62.7385L215.106 33.3559H229.909V81.5232H221.106V46.8136L215.554 81.5232H206.919L201.031 46.8136V81.5232H192.34Z" fill="white"/>
</g>
<g filter="url(#filter9_d_0_1)">
<path d="M163.956 83.1991H176.685C180.535 83.1991 183.283 84.4514 184.928 86.9561C186.572 89.4233 187.395 93.0494 187.395 97.8344C187.395 102.619 186.666 106.227 185.208 108.657C183.75 111.086 181.133 112.301 177.358 112.301H173.432V131.366H163.956V83.1991ZM173.993 103.61C175.152 103.61 175.993 103.404 176.517 102.993C177.077 102.545 177.432 101.928 177.582 101.143C177.769 100.32 177.862 99.1614 177.862 97.6661C177.862 95.6475 177.638 94.1896 177.189 93.2924C176.741 92.3952 175.844 91.9466 174.498 91.9466H173.432V103.61H173.993ZM191.919 131.366V83.1991H201.227V131.366H191.919ZM207.034 83.1991H221.838C224.193 83.1991 226.006 83.7412 227.277 84.8253C228.585 85.872 229.464 87.3673 229.912 89.3112C230.361 91.2177 230.585 93.6662 230.585 96.6568C230.585 99.3857 230.23 101.517 229.52 103.049C228.81 104.582 227.576 105.647 225.819 106.245C227.277 106.544 228.324 107.273 228.959 108.432C229.632 109.591 229.968 111.161 229.968 113.142L229.856 131.366H220.436V112.526C220.436 111.18 220.174 110.32 219.651 109.946C219.127 109.572 218.174 109.386 216.791 109.386V131.366H207.034V83.1991ZM219.146 101.031C220.492 101.031 221.165 99.5726 221.165 96.6568C221.165 95.3858 221.109 94.4326 220.997 93.7971C220.884 93.1616 220.679 92.7317 220.38 92.5074C220.081 92.2457 219.651 92.1148 219.09 92.1148H216.847V101.031H219.146ZM247.215 131.815C243.327 131.815 240.374 130.637 238.355 128.282C236.336 125.89 235.327 122.544 235.327 118.245V95.311C235.327 91.1616 236.336 88.0402 238.355 85.9467C240.374 83.8159 243.327 82.7505 247.215 82.7505C251.102 82.7505 254.056 83.8159 256.074 85.9467C258.093 88.0402 259.102 91.1616 259.102 95.311V118.245C259.102 122.582 258.093 125.927 256.074 128.282C254.056 130.637 251.102 131.815 247.215 131.815ZM247.215 122.955C248.074 122.955 248.654 122.582 248.953 121.834C249.252 121.086 249.401 120.04 249.401 118.694V95.1428C249.401 94.0961 249.252 93.255 248.953 92.6195C248.691 91.9466 248.13 91.6102 247.271 91.6102C245.663 91.6102 244.859 92.8251 244.859 95.255V118.75C244.859 120.133 245.028 121.18 245.364 121.89C245.701 122.6 246.317 122.955 247.215 122.955Z" fill="white"/>
</g>
<defs>
<filter id="filter0_d_0_1" x="0.578613" y="29.6533" width="145.852" height="78.1411" filterUnits="userSpaceOnUse" color-interpolation-filters="sRGB">
<feFlood flood-opacity="0" result="BackgroundImageFix"/>
<feColorMatrix in="SourceAlpha" type="matrix" values="0 0 0 0 0 0 0 0 0 0 0 0 0 0 0 0 0 0 127 0" result="hardAlpha"/>
<feOffset dy="2.89301"/>
<feColorMatrix type="matrix" values="0 0 0 0 0.105882 0 0 0 0 0.105882 0 0 0 0 0.105882 0 0 0 1 0"/>
<feBlend mode="normal" in2="BackgroundImageFix" result="effect1_dropShadow_0_1"/>
<feBlend mode="normal" in="SourceGraphic" in2="effect1_dropShadow_0_1" result="shape"/>
</filter>
<filter id="filter1_d_0_1" x="221.074" y="23.144" width="147.254" height="79.1053" filterUnits="userSpaceOnUse" color-interpolation-filters="sRGB">
<feFlood flood-opacity="0" result="BackgroundImageFix"/>
<feColorMatrix in="SourceAlpha" type="matrix" values="0 0 0 0 0 0 0 0 0 0 0 0 0 0 0 0 0 0 127 0" result="hardAlpha"/>
<feOffset dy="3.13409"/>
<feColorMatrix type="matrix" values="0 0 0 0 0.105882 0 0 0 0 0.105882 0 0 0 0 0.105882 0 0 0 1 0"/>
<feBlend mode="normal" in2="BackgroundImageFix" result="effect1_dropShadow_0_1"/>
<feBlend mode="normal" in="SourceGraphic" in2="effect1_dropShadow_0_1" result="shape"/>
</filter>
<filter id="filter2_d_0_1" x="112.892" y="31.8105" width="51.5554" height="102.082" filterUnits="userSpaceOnUse" color-interpolation-filters="sRGB">
<feFlood flood-opacity="0" result="BackgroundImageFix"/>
<feColorMatrix in="SourceAlpha" type="matrix" values="0 0 0 0 0 0 0 0 0 0 0 0 0 0 0 0 0 0 127 0" result="hardAlpha"/>
<feOffset dy="2.89301"/>
<feColorMatrix type="matrix" values="0 0 0 0 0.2875 0 0 0 0 0 0 0 0 0 0.22425 0 0 0 1 0"/>
<feBlend mode="normal" in2="BackgroundImageFix" result="effect1_dropShadow_0_1"/>
<feBlend mode="normal" in="SourceGraphic" in2="effect1_dropShadow_0_1" result="shape"/>
</filter>
<filter id="filter3_d_0_1" x="163.834" y="33.356" width="66.0747" height="51.0602" filterUnits="userSpaceOnUse" color-interpolation-filters="sRGB">
<feFlood flood-opacity="0" result="BackgroundImageFix"/>
<feColorMatrix in="SourceAlpha" type="matrix" values="0 0 0 0 0 0 0 0 0 0 0 0 0 0 0 0 0 0 127 0" result="hardAlpha"/>
<feOffset dy="2.89301"/>
<feColorMatrix type="matrix" values="0 0 0 0 0.2875 0 0 0 0 0 0 0 0 0 0.22425 0 0 0 1 0"/>
<feBlend mode="normal" in2="BackgroundImageFix" result="effect1_dropShadow_0_1"/>
<feBlend mode="normal" in="SourceGraphic" in2="effect1_dropShadow_0_1" result="shape"/>
</filter>
<filter id="filter4_d_0_1" x="163.956" y="82.7505" width="95.146" height="51.9575" filterUnits="userSpaceOnUse" color-interpolation-filters="sRGB">
<feFlood flood-opacity="0" result="BackgroundImageFix"/>
<feColorMatrix in="SourceAlpha" type="matrix" values="0 0 0 0 0 0 0 0 0 0 0 0 0 0 0 0 0 0 127 0" result="hardAlpha"/>
<feOffset dy="2.89301"/>
<feColorMatrix type="matrix" values="0 0 0 0 0.2875 0 0 0 0 0 0 0 0 0 0.22425 0 0 0 1 0"/>
<feBlend mode="normal" in2="BackgroundImageFix" result="effect1_dropShadow_0_1"/>
<feBlend mode="normal" in="SourceGraphic" in2="effect1_dropShadow_0_1" result="shape"/>
</filter>
<filter id="filter5_d_0_1" x="0.578613" y="29.6533" width="145.852" height="78.1411" filterUnits="userSpaceOnUse" color-interpolation-filters="sRGB">
<feFlood flood-opacity="0" result="BackgroundImageFix"/>
<feColorMatrix in="SourceAlpha" type="matrix" values="0 0 0 0 0 0 0 0 0 0 0 0 0 0 0 0 0 0 127 0" result="hardAlpha"/>
<feOffset dy="2.89301"/>
<feColorMatrix type="matrix" values="0 0 0 0 0.105882 0 0 0 0 0.105882 0 0 0 0 0.105882 0 0 0 1 0"/>
<feBlend mode="normal" in2="BackgroundImageFix" result="effect1_dropShadow_0_1"/>
<feBlend mode="normal" in="SourceGraphic" in2="effect1_dropShadow_0_1" result="shape"/>
</filter>
<filter id="filter6_d_0_1" x="221.074" y="23.144" width="147.254" height="79.1053" filterUnits="userSpaceOnUse" color-interpolation-filters="sRGB">
<feFlood flood-opacity="0" result="BackgroundImageFix"/>
<feColorMatrix in="SourceAlpha" type="matrix" values="0 0 0 0 0 0 0 0 0 0 0 0 0 0 0 0 0 0 127 0" result="hardAlpha"/>
<feOffset dy="3.13409"/>
<feColorMatrix type="matrix" values="0 0 0 0 0.105882 0 0 0 0 0.105882 0 0 0 0 0.105882 0 0 0 1 0"/>
<feBlend mode="normal" in2="BackgroundImageFix" result="effect1_dropShadow_0_1"/>
<feBlend mode="normal" in="SourceGraphic" in2="effect1_dropShadow_0_1" result="shape"/>
</filter>
<filter id="filter7_d_0_1" x="112.892" y="31.8105" width="51.5554" height="102.082" filterUnits="userSpaceOnUse" color-interpolation-filters="sRGB">
<feFlood flood-opacity="0" result="BackgroundImageFix"/>
<feColorMatrix in="SourceAlpha" type="matrix" values="0 0 0 0 0 0 0 0 0 0 0 0 0 0 0 0 0 0 127 0" result="hardAlpha"/>
<feOffset dy="2.89301"/>
<feColorMatrix type="matrix" values="0 0 0 0 0.2875 0 0 0 0 0 0 0 0 0 0.22425 0 0 0 1 0"/>
<feBlend mode="normal" in2="BackgroundImageFix" result="effect1_dropShadow_0_1"/>
<feBlend mode="normal" in="SourceGraphic" in2="effect1_dropShadow_0_1" result="shape"/>
</filter>
<filter id="filter8_d_0_1" x="163.834" y="33.356" width="66.0747" height="51.0602" filterUnits="userSpaceOnUse" color-interpolation-filters="sRGB">
<feFlood flood-opacity="0" result="BackgroundImageFix"/>
<feColorMatrix in="SourceAlpha" type="matrix" values="0 0 0 0 0 0 0 0 0 0 0 0 0 0 0 0 0 0 127 0" result="hardAlpha"/>
<feOffset dy="2.89301"/>
<feColorMatrix type="matrix" values="0 0 0 0 0.2875 0 0 0 0 0 0 0 0 0 0.22425 0 0 0 1 0"/>
<feBlend mode="normal" in2="BackgroundImageFix" result="effect1_dropShadow_0_1"/>
<feBlend mode="normal" in="SourceGraphic" in2="effect1_dropShadow_0_1" result="shape"/>
</filter>
<filter id="filter9_d_0_1" x="163.956" y="82.7505" width="95.146" height="51.9575" filterUnits="userSpaceOnUse" color-interpolation-filters="sRGB">
<feFlood flood-opacity="0" result="BackgroundImageFix"/>
<feColorMatrix in="SourceAlpha" type="matrix" values="0 0 0 0 0 0 0 0 0 0 0 0 0 0 0 0 0 0 127 0" result="hardAlpha"/>
<feOffset dy="2.89301"/>
<feColorMatrix type="matrix" values="0 0 0 0 0.2875 0 0 0 0 0 0 0 0 0 0.22425 0 0 0 1 0"/>
<feBlend mode="normal" in2="BackgroundImageFix" result="effect1_dropShadow_0_1"/>
<feBlend mode="normal" in="SourceGraphic" in2="effect1_dropShadow_0_1" result="shape"/>
</filter>
</defs>
</svg>
