<svg width="411" height="823" viewBox="0 0 411 823" fill="none" xmlns="http://www.w3.org/2000/svg">
<g clip-path="url(#clip0_324_224)">
<rect width="411" height="823" fill="#081E2A"/>
<path d="M373.711 275.251C364.124 306.549 325.974 322.615 288.5 311.136C251.027 299.657 294.944 323.986 329.117 263.291C344.418 192.905 275.917 183.308 323.219 197.798C360.692 209.277 383.298 243.954 373.711 275.251Z" fill="#F9FAC9"/>
<rect x="17.2458" y="464.223" width="151.993" height="389.674" fill="#5351C2"/>
<rect x="113.134" y="679.462" width="39.7835" height="30.6027" fill="#211F88"/>
<rect x="113.134" y="758.009" width="39.7835" height="30.6027" fill="#211F88"/>
<rect x="212.083" y="522.368" width="151.993" height="369.272" fill="#5351C2"/>
<rect x="295.73" y="547.87" width="54.0647" height="30.6027" fill="#211F88"/>
<rect x="295.73" y="616.216" width="54.0647" height="30.6027" fill="#211F88"/>
<rect x="227.384" y="683.542" width="54.0647" height="30.6027" fill="#211F88"/>
<rect x="227.384" y="739.647" width="54.0647" height="30.6027" fill="#211F88"/>
<rect x="227.384" y="797.792" width="54.0647" height="30.6027" fill="#211F88"/>
<rect x="-46" y="530.529" width="159.134" height="390.694" fill="#7875FF"/>
<rect x="139.656" y="659.06" width="122.411" height="234.62" fill="#7875FF"/>
<rect x="288.589" y="570.312" width="122.411" height="272.364" fill="#7875FF"/>
<rect x="40.7078" y="566.232" width="46.9241" height="23.462" fill="#5350FF"/>
<rect x="33.5671" y="491.765" width="39.7835" height="30.6027" fill="#211F88"/>
<rect x="227.384" y="547.87" width="54.0647" height="30.6027" fill="#211F88"/>
<rect x="227.384" y="616.216" width="54.0647" height="30.6027" fill="#211F88"/>
<rect x="113.134" y="491.765" width="39.7835" height="30.6027" fill="#211F88"/>
<rect x="113.134" y="552.971" width="39.7835" height="30.6027" fill="#211F88"/>
<rect x="113.134" y="616.216" width="39.7835" height="30.6027" fill="#211F88"/>
<rect x="40.7078" y="626.417" width="46.9241" height="23.462" fill="#5350FF"/>
<rect x="40.7078" y="686.603" width="46.9241" height="23.462" fill="#5350FF"/>
<rect x="153.938" y="686.603" width="26.5223" height="23.462" fill="#5350FF"/>
<rect x="153.938" y="745.768" width="26.5223" height="23.462" fill="#5350FF"/>
<rect x="221.263" y="686.603" width="26.5223" height="23.462" fill="#5350FF"/>
<rect x="221.263" y="745.768" width="26.5223" height="23.462" fill="#5350FF"/>
<path d="M310.011 597.855H350.304V646.819H310.011V597.855Z" fill="#5350FF"/>
<rect x="310.011" y="781.471" width="39.7835" height="48.9643" fill="#5350FF"/>
<rect x="310.011" y="689.663" width="40.8036" height="48.9643" fill="#5350FF"/>
<rect x="221.263" y="804.933" width="26.5223" height="23.462" fill="#5350FF"/>
<rect x="153.938" y="804.933" width="26.5223" height="23.462" fill="#5350FF"/>
<rect x="40.7078" y="746.788" width="46.9241" height="23.462" fill="#5350FF"/>
<rect x="40.7078" y="806.973" width="46.9241" height="23.462" fill="#5350FF"/>
</g>
<defs>
<clipPath id="clip0_324_224">
<rect width="411" height="823" fill="white"/>
</clipPath>
</defs>
</svg>
