<svg width="109" height="112" viewBox="0 0 109 112" fill="none" xmlns="http://www.w3.org/2000/svg">
<rect x="17.2861" y="50.6987" width="31.5166" height="31.5166" transform="rotate(21.1048 17.2861 50.6987)" fill="#E48E0D"/>
<rect x="24.1431" y="34.7126" width="31.5166" height="31.5166" transform="rotate(50 24.1431 34.7126)" fill="#E48E0D"/>
<rect x="88.0874" y="32.8857" width="31.5166" height="31.5166" transform="rotate(50 88.0874 32.8857)" fill="#E48E0D"/>
<rect x="31.9722" y="20.2585" width="31.5166" height="31.5166" transform="rotate(-40 31.9722 20.2585)" fill="#E48E0D"/>
<rect x="31.9722" y="87.3999" width="31.5166" height="31.5166" transform="rotate(-40 31.9722 87.3999)" fill="#E48E0D"/>
<rect width="31.5166" height="31.5166" transform="matrix(0.932923 -0.360076 -0.360076 -0.932923 15.0024 60.249)" fill="#E48E0D"/>
<rect x="54.3528" y="92.4993" width="31.5166" height="31.5166" transform="rotate(-69.2993 54.3528 92.4993)" fill="#E48E0D"/>
<rect width="31.5166" height="31.5166" transform="matrix(0.353487 0.935439 0.935439 -0.353487 52.0688 18.4487)" fill="#E48E0D"/>
<rect x="18.2698" y="75.0293" width="31.5166" height="31.5166" transform="rotate(-25.0984 18.2698 75.0293)" fill="#E48E0D"/>
<rect width="31.5166" height="31.5166" transform="matrix(0.905581 0.424174 0.424174 -0.905581 15.9861 35.9187)" fill="#E48E0D"/>
<rect x="78.6755" y="91.3438" width="31.5166" height="31.5166" transform="rotate(-115.503 78.6755 91.3438)" fill="#E48E0D"/>
<rect width="31.5166" height="31.5166" transform="matrix(-0.43055 0.902566 0.902566 0.43055 76.3918 19.604)" fill="#E48E0D"/>
<ellipse cx="54.8094" cy="55.7228" rx="42.0206" ry="40.6503" fill="#E8D740"/>
</svg>
