<svg width="140" height="210" viewBox="0 0 140 210" fill="none" xmlns="http://www.w3.org/2000/svg">
<path d="M3.75978 109.427C3.75978 103.7 8.93111 99.3618 14.5708 100.358L25.8453 102.348C27.3378 102.612 28.7422 103.24 29.9339 104.176L38.95 111.26C40.0578 112.131 41.2785 112.847 42.5786 113.39L53.4377 117.924C54.7859 118.486 56.2066 118.857 57.658 119.025L69.112 120.349C70.2157 120.476 71.33 120.486 72.4357 120.377L85.8188 119.056C87.7276 118.868 89.5853 118.329 91.2988 117.467L99.4822 113.351C100.653 112.762 101.746 112.027 102.733 111.165L112.281 102.828C113.669 101.616 115.389 100.848 117.219 100.624L126.269 99.5154C131.758 98.8431 136.598 103.126 136.598 108.657V196.645C136.598 201.732 132.475 205.855 127.388 205.855H12.9694C7.88308 205.855 3.75978 201.732 3.75978 196.645V109.427Z" stroke="white" stroke-width="6.39443"/>
<circle cx="70.1788" cy="66.0286" r="54.9257" stroke="white" stroke-width="4.56745"/>
<path d="M57.9098 97.0392L54.648 103.066L51.1622 97.1659L57.9098 97.0392Z" fill="white" stroke="white" stroke-width="4.56745"/>
<path d="M88.3635 96.9428L84.8825 102.845L81.6158 96.8215L88.3635 96.9428Z" fill="white" stroke="white" stroke-width="4.56745"/>
<path d="M126.699 50.8647C136.349 113.588 93.5644 13.6441 72.2467 13.6441C50.929 13.6441 13.6587 112.899 13.6587 55.6896C15.0372 28.1188 50.929 7.44067 72.2467 7.44067C93.5644 7.44067 126.699 36.3991 126.699 50.8647Z" fill="white"/>
<path d="M135.537 62.109L124.838 76.6174L117.636 64.2332L135.537 62.109Z" fill="white"/>
<path d="M73.7468 43.8872C72.6734 45.8684 69.8058 45.7953 68.8347 43.762L55.8482 16.5697C54.9611 14.7122 56.3485 12.5729 58.4064 12.6254L85.7477 13.3222C87.8055 13.3747 89.0822 15.5819 88.1016 17.3918L73.7468 43.8872Z" fill="white"/>
<path d="M6.76611 65.4791L24.3357 69.5133L15.8453 81.0526L6.76611 65.4791Z" fill="white"/>
</svg>
